<?xml version="1.0" encoding="UTF-8" standalone="no"?>
<svg xmlns:rdf="http://www.w3.org/1999/02/22-rdf-syntax-ns#" xmlns="http://www.w3.org/2000/svg" xml:space="preserve" height="70.806" viewBox="0 0 268.93979 70.806214" width="268.94" version="1.1" xmlns:cc="http://creativecommons.org/ns#" xmlns:dc="http://purl.org/dc/elements/1.1/"><g transform="matrix(1.25 0 0 -1.25 -246.02 532.05)"><g transform="matrix(.35 0 0 .35 198.43 258.84)"><path d="m63.021 0c-17.447 0-31.95 5.8462-43.507 17.537-11.556 11.691-17.334 26.367-17.334 44.031s5.5809 31.901 16.74 42.715c11.162 10.813 25.864 16.223 44.105 16.223 15.751 0 30.172-4.1662 43.258-12.492 2.434-1.588 3.7667-3.1205 3.9961-4.5938l0.33789-1.5371 1.9531-10.42 0.3418-1.8789 0.0859-0.94141c0-1.1374-0.45332-1.6759-1.3613-1.6191-0.79334 0.05525-1.9251 1.5874-3.3984 4.6016-3.1747 6.4775-8.8756 11.989-17.098 16.537-8.2221 4.5429-16.586 6.8164-25.092 6.8164-14.575 0-26.5-5.6164-35.773-16.842-9.269-11.226-13.906-25.697-13.906-43.4 0-15.388 4.1705-27.523 12.506-36.4 8.3381-8.8846 19.735-13.324 34.197-13.324 18.147 0 32.522 9.2688 43.125 27.799 1.3614 2.4299 2.3805 3.6145 3.0605 3.5605 0.56532-0.05662 0.99206-0.34294 1.2754-0.85156l0.25391-0.84766-0.25391-2.123-2.7207-20.398c-0.28334-2.1519-0.87775-3.2305-1.7871-3.2305-0.45469 0-1.304 0.45666-2.5547 1.3633-0.56531 0.452-0.99145 0.67578-1.2734 0.67578l-1.44-0.508-1.357-0.5956-3.401-1.7871c-10.028-5.3794-21.015-8.0703-32.971-8.0703zm416.85 0c-10.763 0-19.56 2.8829-26.387 8.6602-6.8284 5.7746-10.24 13.25-10.24 22.418 0 8.2126 2.6167 14.892 7.8516 20.047 5.2336 5.1485 14.128 9.849 26.693 14.098 12.16 4.0826 19.512 7.2275 22.062 9.4375 4.9786 4.3094 7.4688 9.6162 7.4688 15.906 0 6.5828-2.6935 12.166-8.0957 16.756-5.3941 4.5968-11.989 6.8906-19.785 6.8906-7.6891 0-14.8-2.3834-21.359-7.1543-6.5558-4.7735-10.844-10.688-12.881-17.732-0.80812-2.724-1.7346-4.1186-2.7695-4.1738-1.1602-0.05938-1.7344 0.76609-1.7344 2.4648 0 2.1532 0.73218 5.7743 2.2109 10.873 1.3019 4.7074 2.0105 7.2843 2.1211 7.7363 0.68275 3.1774 1.1924 5.1418 1.5352 5.9082 0.3345 0.76225 1.0144 1.4827 2.0371 2.1641 2.4326 1.6432 6.2739 3.088 11.516 4.332 5.239 1.2454 10.041 1.875 14.4 1.875 12.074 0 21.952-3.3694 29.66-10.107 7.708-6.7392 11.562-15.398 11.562-25.988-0.00001-15.622-10.47-26.859-31.404-33.715-10.752-3.5686-17.499-6.0357-20.244-7.4023-2.743-1.3588-5.2752-3.5141-7.5918-6.4648-2.6606-3.4594-3.9922-7.5686-3.9922-12.334 0-5.3888 2.0477-9.8806 6.1426-13.484 4.0975-3.5984 9.1964-5.4004 15.299-5.4004 7.6784 0 14.636 1.9867 20.879 5.9668 6.2428 3.9802 10.38 9.0375 12.414 15.178 0.9215 2.7281 1.8407 4.0938 2.7676 4.0938 1.2102 0 1.8164-0.87872 1.8164-2.6367 0-0.45462-0.13645-1.6124-0.42383-3.4824l-1.3574-8.7559c-0.74075-4.7572-1.1055-7.6173-1.1055-8.582 0-2.8319-0.7109-4.2207-2.1289-4.1641-0.45325 0-0.76302 0.11859-0.93164 0.33984l-1.1895 1.0195c-0.68275 0.56812-1.3618 0.85156-2.0391 0.85156-0.50875 0-1.0187-0.11664-1.5273-0.33789l-5.86-2.4594c-4.19-1.7607-9.32-2.6328-15.38-2.6328zm104.79 0c-8.5526 0-16.906 1.598-25.07 4.7969-8.1572 3.2018-14.899 7.5138-20.221 12.951-5.0406 5.1499-9.0558 11.563-12.025 19.23-2.9804 7.673-4.4648 15.415-4.4648 23.23 0 18.005 5.654 32.556 16.959 43.65 11.302 11.093 26.1 16.646 44.4 16.646 17.846 0 32.491-5.8064 43.934-17.408 11.447-11.607 17.168-26.47 17.168-44.586 0-17.101-5.6795-31.127-17.037-42.08-11.36-10.958-25.9-16.434-43.64-16.434zm-379.9 0.93164c-2.5486 0-3.8223 0.77711-3.8223 2.334 0 1.0525 0.81827 1.5762 2.4629 1.5762 5.154 0 8.6238 1.4033 10.41 4.2109 1.7836 2.8117 2.6777 8.2726 2.6777 16.387v71.924l-0.082 5.5273c0 6.8094-2.0437 10.785-6.1211 11.916l-3.2285 0.9375c-1.476 0.3845-2.2109 1.0496-2.2109 1.998 0 1.2156 0.90688 1.8281 2.7188 1.8281 0.79475 0 2.2653-0.19965 4.4199-0.59765 4.08-0.67725 11.075-1.0176 20.99-1.0176 7.0806 0 16.033 0.50814 26.854 1.5254 2.7754 0.23075 4.9868 0.3418 6.6328 0.3418 7.5892 0 13.877-3.0495 18.865-9.1465 4.1339-5.0771 6.2031-9.4544 6.2031-13.127 0-1.5192-0.52664-2.2546-1.5723-2.1992-0.63812 0.05525-1.2759 0.56867-1.9141 1.5293-6.3345 10.029-20.621 15.041-42.854 15.041-7.0159 0-11.386-0.59631-13.109-1.7891-1.727-1.1914-2.5898-4.1989-2.5898-9.0195v-31.33l-0.0859-2.8086c0-1.7054 0.46618-2.839 1.3984-3.4043 0.93363-0.57075 2.7887-0.85352 5.5586-0.85352h18.742c4.8611 0 8.3083 0.67973 10.346 2.0371 2.0332 1.3626 3.3889 3.9397 4.0703 7.7363l0.50781 2.3828c0.2335 1.248 0.95625 1.8672 2.1719 1.8672 1.1022 0 1.6523-0.70767 1.6523-2.123 0-0.506-0.0565-1.3245-0.16992-2.4512-0.33862-3.3919-0.50976-6.8152-0.50976-10.264 0-4.5185 0.25065-9.5234 0.7539-15.004 0.062-0.84862 0.0957-1.4686 0.0957-1.8652 0-1.4694-0.55076-2.2298-1.6504-2.2852-1.1604-0.05662-1.8837 0.62244-2.1738 2.0391-0.73525 3.7374-1.5575 6.1167-2.4629 7.1367-0.90663 1.0226-2.8926 1.8434-5.9512 2.4668-3.4552 0.68-8.1567 1.0156-14.105 1.0156h-13.088c-2.4366 0-3.8953-0.27022-4.377-0.80859-0.48175-0.537-0.72266-2.1182-0.72266-4.7344v-34.285c0-3.0101 0.50872-4.9614 1.5274-5.8438 1.016-0.881 3.2791-1.3223 6.7871-1.3223h13.318c8.7671 0 14.79 0.42414 18.068 1.2754 3.28 0.84875 5.46 2.5496 6.5312 5.0996 0.67875 1.6446 1.0176 3.3724 1.0176 5.1816v2.2109c0 1.7594 0.55019 2.6115 1.6484 2.5508 0.98088-0.05537 1.6143-0.49741 1.9043-1.3164 0.28737-0.819 0.57901-2.8628 0.86914-6.1387l0.34-5.002c0.28462-3.7265 0.50902-5.984 0.68164-6.7773 0.16738-0.78662 0.25195-1.4379 0.25195-1.9453 0-1.6365-0.93411-2.4551-2.8027-2.4551-0.73813 0-1.8718 0.11264-3.4004 0.33789-0.73538 0.11612-2.7766 0.2258-6.1172 0.3418l-12.07 0.592c-5.3226 0.23062-11.445 0.3418-18.355 0.3418-11.387 0-21.13-0.45205-29.232-1.3574-2.38-0.286-4.2786-0.42773-5.6953-0.42773zm224.76 0.085938c-0.63013 0.055375-1.4483 0.11467-2.4629 0.16992-2.156 0.22675-5.014 0.33789-8.584 0.33789-1.1279 0-2.0681-0.024609-2.8047-0.083984-2.0372-0.22525-3.281-0.33789-3.7344-0.33789-1.078 0-1.8289 0.21114-2.2539 0.63477-0.42362 0.425-1.0615 1.5493-1.9102 3.3613l-39.904 85.57-0.76758 1.7012-1.0176 2.3008c-0.51 1.0752-0.93343 1.6113-1.2734 1.6113-0.28338 0-0.73875-0.73436-1.3594-2.209l-4.332-8.752-35.42-76.402-0.93359-1.9531c-1.6432-3.5659-3.6814-5.3555-6.1152-5.3555-0.79475 0-1.8426 0.088031-3.1445 0.25391-1.2454 0.11612-4.1896 0.17188-8.8281 0.17188-3.0586 0-4.9866-0.05575-5.7774-0.17188-1.36-0.10925-2.2949-0.16602-2.8008-0.16602-1.418 0-2.127 0.6078-2.127 1.8262 0 1.113 0.8494 1.8061 2.5508 2.084 6.2306 1.1348 10.679 4.1198 13.342 8.9687 2.6606 4.8491 3.9961 12.322 3.9961 22.408 0 4.7088-0.42734 15.996-1.2774 33.855l-1.1914 24.662c-0.34 6.9755-1.3273 11.903-2.9707 14.797-1.6432 2.8886-4.5333 4.82-8.6699 5.7793-1.36 0.27662-2.041 0.89117-2.041 1.8262 0 1.2251 0.85029 1.834 2.5449 1.834 0.62337 0 1.4977-0.0856 2.627-0.25976 3.7912-0.50725 7.7458-0.76172 11.873-0.76172 3.4445 0 8.3375 0.28219 14.668 0.85156 1.0186 0.10925 2.0628 0.16992 3.1367 0.16992 1.638 0 2.4609-0.64217 2.4609-1.9199 0.00001-1.1104-1.7321-1.9455-5.1875-2.5-7.0226-1.0768-10.535-6.6024-10.535-16.57 0-10.37 0.0865-17.279 0.25391-20.738l1.9551-42.064 31.945 68.932 1.7012 3.5684c1.364 2.5985 2.1548 4.1567 2.3828 4.6641 1.2305 2.778 2.5215 4.1602 3.8652 4.1602 1.2899 0 2.4981-1.3257 3.6152-3.9863 0.28475-0.622 0.79645-1.6971 1.5332-3.2285 1.3074-2.5446 2.8408-5.801 4.6016-9.7637 4.3161-9.6171 6.6991-14.939 7.1524-15.959l8.6894-17.828 7.5742-16.215c1.592-3.2812 4.7968-9.1422 9.627-17.576l2.207 54.023 0.33985 13.865c0 5.1028-0.56264 8.6768-1.6973 10.717-1.1334 2.0441-3.3709 3.5131-6.7129 4.4238-1.418 0.3845-2.127 1.0199-2.127 1.9062 0 0.99438 0.82284 1.4941 2.4648 1.4941 0.90388 0 4.2961-0.16161 10.172-0.47461 3.7872-0.25362 6.5605-0.375 8.3105-0.375 2.5432 0 4.9198 0.11194 7.123 0.33594l6.6152 0.68555c0.79325 0.0553 1.4978 0.0801 2.1172 0.0801 2.0926 0 3.1406-0.55231 3.1406-1.6641 0-1.0524-1.5012-1.8024-4.5059-2.2422-4.192-0.622-7.0806-1.8728-8.666-3.7441-1.5894-1.8754-2.3828-4.9652-2.3828-9.2773l-0.41992-10.725-1.6172-46.219-0.51172-20.512c0-6.5248 0.57781-11.217 1.7422-14.084 1.1656-2.8684 3.1893-4.6376 6.082-5.3203l3.6543-0.93945c1.1279-0.27262 1.6973-0.93764 1.6973-1.9941 0-1.1589-0.56939-1.7135-1.6973-1.6582zm209.58 0.25195c-1.2468 0-1.8711 0.52966-1.8711 1.582 0 1.0496 0.77087 1.685 2.2969 1.9062 5.8946 0.79475 10.398 4.0105 13.512 9.6543 3.1208 5.6382 4.6738 13.361 4.6738 23.174v57.832c0 6.1226-0.83219 10.56-2.5078 13.309-1.669 2.7524-4.8838 4.949-9.6426 6.5938-1.6446 0.5545-2.4376 1.2437-2.3809 2.0762 0.11463 1.051 0.90486 1.5762 2.3809 1.5762 0.61937 0 1.6684-0.10418 3.1445-0.31055 1.9792-0.25375 4.0771-0.38477 6.2871-0.38477l4.0801-0.15234 8.666 0.42383c4.308 0.22662 6.7698 0.39776 7.3945 0.50976 0.90662 0.11338 1.7574 0.16797 2.5508 0.16797 1.1859 0 1.7852-0.55653 1.7852-1.6602 0-1.2184-0.93526-1.9417-2.8066-2.1602-4.474-0.68275-7.4766-1.7304-9.0078-3.1484-1.5314-1.4194-2.4927-4.001-2.8867-7.7383l-0.25781-6.0449 0.0879-3.5742v-57.674c0-2.554 0.53803-3.8301 1.6133-3.8301 0.45063 0 0.84878 0.16839 1.1914 0.50977l0.84765 0.93555 71.637 81.922 1.873 2.209c0.45325 0.45337 1.1076 0.70682 1.959 0.76757 1.302 0.0553 2.093-0.60829 2.375-1.998 0.28738-1.391 0.42578-5.283 0.42578-11.684v-71.217l0.16797-5.6094v-9.1777c0-5.4414 0.55711-9.1488 1.6621-11.135 1.1036-1.9806 3.3839-3.4 6.8379-4.25 1.1914-0.33738 1.7553-0.87391 1.6973-1.6133-0.108-1.1914-0.90438-1.7871-2.375-1.7871-0.96738 0-2.3526 0.17092-4.166 0.51367-2.0966 0.33725-4.9027 0.50977-8.4121 0.50977-6.5774 0-11.813-0.20236-15.721-0.61523-1.6448-0.1565-2.8323-0.23633-3.5703-0.23633-1.6448 0-2.4648 0.52792-2.4648 1.5762 0 1.1118 0.8201 1.8028 2.4648 2.082 5.8366 0.96062 9.8702 2.4446 12.111 4.459 2.2342 2.013 3.6384 5.4235 4.2051 10.24l1.0195 19.547-0.0898 11.473v42.064c-0.0526 1.0214-0.36031 1.5611-0.92969 1.6191-0.34 0.05388-1.1341-0.62634-2.3809-2.043l-78.19-88.553c-1.4154-1.6432-2.8267-2.4668-4.2461-2.4668-0.73525 0-1.7826 0.027359-3.1426 0.083984l-1.3613 0.085937-5.6953-0.16992-3.4805-0.082031c-0.62737-0.056625-1.0813-0.089844-1.3633-0.089844zm-521.26 0.3417c-1.9199 0-2.8848 0.63711-2.8848 1.9121 0 0.83112 0.68042 1.3843 2.0391 1.6582l3.8262 0.76758c6.1187 1.248 9.1777 5.6465 9.1777 13.191v76.096l-0.0859 3.9121c0 5.4454-0.66797 9.3162-2.0117 11.615-1.3398 2.2978-3.9784 4.043-7.9141 5.2344-1.5408 0.44662-2.3125 1.1099-2.3125 1.9883-0.00001 1.0564 0.70954 1.5495 2.1289 1.4941 1.1887-0.0539 2.7784-0.22319 4.7617-0.50781 4.706-0.67725 10.549-1.0176 17.525-1.0176 6.012 0 11.709 0.20112 17.098 0.59375l9.1894 0.67773c2.38 0.17 4.4768 0.25391 6.293 0.25391 10.943 0 18.858-3.0735 23.736-9.2285 3.458-4.4538 5.3021-8.5468 5.5273-12.277 0.0554-1.128-0.37059-1.6914-1.2773-1.6914-0.79325 0-1.5855 0.7663-2.3789 2.2949-2.1546 4.1366-7.1344 7.4648-14.936 9.9824-7.8038 2.5256-17.008 3.7852-27.619 3.7852-7.2048 0-11.464-0.62251-12.766-1.8691-1.31-1.26-1.96-5.29-1.96-12.091l-0.0859-2.9805v-73.973c0-8.9034 2.5491-13.986 7.6465-15.232l2.9766-0.68359c1.64-0.3845 2.46-1.1879 2.46-2.4061 0-0.83112-0.67711-1.248-2.0371-1.248-0.28062 0-1.496 0.05725-3.6426 0.17188-4.2419 0.282-8.9643 0.42383-14.164 0.42383-4.8072 0-9.1314-0.16861-12.977-0.50586-2.2626-0.23075-4.0425-0.34375-5.3418-0.34375zm461.34 3.9082c15.314 0 28.098 5.6475 38.363 16.934 10.261 11.285 15.396 25.382 15.396 42.293 0 14.706-4.2884 26.858-12.848 36.445-8.5608 9.5889-19.423 14.381-32.572 14.381-14.412 0-26.551-5.8801-36.449-17.646-9.8951-11.765-14.842-26.219-14.842-43.359 0-14.99 3.8656-26.91 11.611-35.766 7.7364-8.8522 18.185-13.281 31.34-13.281z" transform="matrix(.8 0 0 -.8 .064762 472.06)" fill="#f66733"/><path d="m0.76851 320.98h596.94m-596.94 45.558h596.94" stroke="#522d80" stroke-miterlimit="3.864" stroke-width="3.2381" fill="none"/><path d="m502.46 143.58c-5.5669 0-10.377 3.2493-10.377 8.9941 0 9.8856 16.568 8.6392 16.568 14.963 0 3.1166-2.3601 4.2754-5.4336 4.2754-3.6078 0-5.5222-2.0056-6.9902-5.0332l-5.0781 2.2285c1.8241 4.6736 6.7683 7.6133 12.023 7.6133 7.1238 0 11.266-3.2958 11.266-9.8867 0-10.42-16.566-9.2623-16.566-14.783 0-2.4948 1.9151-3.5625 4.5879-3.5625 2.894 0 4.8097 1.6909 5.7461 4.1855l5.6094-1.7363c-1.9145-4.6764-6.1893-7.2578-11.355-7.2578zm140.87 0.4004v5.1641h8.416v27.031h6.1465v-27.031h8.4141v-5.1641h-22.977zm-643.41 0.0449v20.127c0 9.3959 5.789 12.469 12.334 12.469 6.5463 0 12.336-3.0729 12.336-12.469v-20.127h-6.1465v20.395c0 5.2106-2.0474 7.0352-6.1895 7.0352-4.1407 0-6.1895-1.8245-6.1895-7.0352v-20.395h-6.1445zm87.443 0v32.15h5.7891v-22.891h0.08789l13.139 22.891h5.9219v-32.15h-5.791v21.908h-0.0879l-12.646-21.908h-6.4121zm88.289 0v32.15h6.1465v-32.15h-6.1465zm66.387 0 8.5039 32.15h6.8574l8.5059-32.15h-6.0566l-5.9668 23.691h-0.0898l-5.6992-23.691h-6.0547zm83.48 0v32.15h21.775v-5.166h-15.629v-8.9941h10.998v-5.166h-10.998v-7.6602h15.139v-5.1641h-21.285zm82.369 0v32.15h6.1465v-13.092h5.2988l6.0566 13.092h6.8106l-7.0781-14.34c3.9194-1.1131 5.9234-4.3193 5.8789-8.2832-0.0445-5.2984-2.9852-9.5273-10.287-9.5273h-12.826zm168.61 0v32.15h6.1445v-32.15h-6.1445zm146.57 0 8.8633 19.326v12.824h6.1445v-12.824l8.8613-19.326h-6.4121l-5.5215 12.734-5.5215-12.734h-6.4141zm-309.04 4.9863h5.6113c3.3839 0 5.209 1.5134 5.209 4.541 0 3.0289-1.4707 4.543-6.2793 4.543h-4.541v-9.084z" transform="matrix(.8 0 0 -.8 .064762 472.06)" fill="#522d80"/></g></g></svg>
