<svg xmlns="http://www.w3.org/2000/svg" viewBox="0 0 203.95 50.88"><defs><style>.cls-1{fill:#9bb4f9;}</style></defs><g id="Layer_2" data-name="Layer 2"><g id="graphics"><path class="cls-1" d="M17,0A15.8,15.8,0,0,0,5.28,4.73,16.19,16.19,0,0,0,.61,16.59,15.3,15.3,0,0,0,5.12,28.1Q9.64,32.47,17,32.47A21.24,21.24,0,0,0,28.66,29.1c.65-.42,1-.84,1.07-1.23l.1-.42.52-2.81.09-.5,0-.26c0-.3-.13-.45-.37-.43s-.52.43-.92,1.24a10.55,10.55,0,0,1-4.6,4.45A13.79,13.79,0,0,1,17.82,31a11.92,11.92,0,0,1-9.64-4.54Q4.43,21.91,4.43,14.75q0-6.23,3.37-9.81T17,1.35q7.32,0,11.61,7.49c.37.66.65,1,.83,1a.4.4,0,0,0,.34-.23l.07-.23-.07-.57-.73-5.49c-.08-.58-.24-.88-.48-.88a1.76,1.76,0,0,0-.69.37.69.69,0,0,1-.34.18l-.39-.13-.37-.16-.91-.48A18.54,18.54,0,0,0,17,0ZM129.31,0a10.62,10.62,0,0,0-7.1,2.33,7.55,7.55,0,0,0-2.76,6,7.25,7.25,0,0,0,2.11,5.41c1.41,1.38,3.81,2.65,7.19,3.79s5.26,1.95,5.95,2.55a5.45,5.45,0,0,1,2,4.28,5.74,5.74,0,0,1-2.18,4.52,7.92,7.92,0,0,1-5.33,1.85,9.63,9.63,0,0,1-5.76-1.92A8.94,8.94,0,0,1,120,24.07c-.21-.74-.46-1.11-.74-1.13s-.47.21-.47.67a12.7,12.7,0,0,0,.59,2.93c.36,1.27.55,2,.58,2.08a10.53,10.53,0,0,0,.41,1.59,1.43,1.43,0,0,0,.55.59A9.73,9.73,0,0,0,124,32a16.7,16.7,0,0,0,3.88.51,11.71,11.71,0,0,0,8-2.72,8.88,8.88,0,0,0,3.12-7q0-6.3-8.46-9.08c-2.9-1-4.72-1.63-5.46-2a6,6,0,0,1-2-1.75,5.27,5.27,0,0,1-1.08-3.32A4.62,4.62,0,0,1,123.6,3a6,6,0,0,1,4.12-1.46,10.24,10.24,0,0,1,5.62,1.61,7.68,7.68,0,0,1,3.35,4.09c.25.74.49,1.1.74,1.1s.49-.23.49-.71a7.89,7.89,0,0,0-.11-.94l-.37-2.35A22.88,22.88,0,0,1,137.15,2c0-.76-.2-1.13-.58-1.12a.3.3,0,0,0-.25.09l-.32.28a.88.88,0,0,1-.55.23,1,1,0,0,1-.41-.09L133.46.71A10.78,10.78,0,0,0,129.32,0Zm28.24,0a18.4,18.4,0,0,0-6.76,1.29,15.5,15.5,0,0,0-5.44,3.49A15.13,15.13,0,0,0,142.11,10a17.06,17.06,0,0,0-1.21,6.26A15.77,15.77,0,0,0,145.47,28q4.58,4.48,12,4.49a15.93,15.93,0,0,0,11.84-4.69,16.37,16.37,0,0,0,4.63-12,15.06,15.06,0,0,0-4.59-11.34A16.25,16.25,0,0,0,157.55,0ZM55.19.25c-.69,0-1,.21-1,.63s.22.43.66.43a3.07,3.07,0,0,1,2.81,1.13c.48.76.72,2.23.72,4.42V26.23l0,1.49q0,2.76-1.65,3.21l-.87.26c-.4.1-.6.28-.6.53s.25.5.74.5a9.12,9.12,0,0,0,1.19-.16,38.23,38.23,0,0,1,5.65-.28q2.87,0,7.24.41c.75.07,1.34.1,1.79.1a6.32,6.32,0,0,0,5.08-2.47,6.08,6.08,0,0,0,1.67-3.54c0-.41-.14-.6-.42-.59a.77.77,0,0,0-.52.41q-2.56,4.06-11.55,4.06c-1.89,0-3.06-.16-3.53-.49s-.7-1.13-.7-2.43V18.8l0-.75a1,1,0,0,1,.38-.92,3.15,3.15,0,0,1,1.5-.23h5.05a5.2,5.2,0,0,1,2.78.55,3,3,0,0,1,1.1,2.08l.14.64a.54.54,0,0,0,.58.51c.3,0,.45-.19.45-.58,0-.13,0-.35,0-.66-.09-.91-.14-1.83-.14-2.76,0-1.22.07-2.57.21-4,0-.23,0-.4,0-.51,0-.39-.15-.6-.44-.61s-.51.17-.59.55A4.74,4.74,0,0,1,72.16,14a3.05,3.05,0,0,1-1.61.67,20.92,20.92,0,0,1-3.8.27H63.23c-.66,0-1-.07-1.18-.22a2.36,2.36,0,0,1-.2-1.27V4.2a2.12,2.12,0,0,1,.42-1.58,3.12,3.12,0,0,1,1.82-.35h3.59a22.76,22.76,0,0,1,4.87.34A2.44,2.44,0,0,1,74.31,4a3.71,3.71,0,0,1,.27,1.4V6c0,.47.15.7.45.68a.51.51,0,0,0,.51-.35,8.93,8.93,0,0,0,.24-1.65l.09-1.35a17.61,17.61,0,0,1,.18-1.83A2.33,2.33,0,0,0,76.12,1c0-.44-.25-.66-.76-.66a7.08,7.08,0,0,0-.91.09q-.3,0-1.65.09L69.55.64q-2.16.09-5,.09A70.54,70.54,0,0,1,56.73.36,15.44,15.44,0,0,0,55.19.25Zm60.56,0-.66,0c-.59.06-1.36.09-2.32.09-.3,0-.55,0-.75,0-.55-.06-.89-.09-1-.09a.89.89,0,0,0-.61.17,4.14,4.14,0,0,0-.51.91L99.14,24.43l-.21.46-.27.62c-.14.29-.26.43-.35.43s-.2-.19-.36-.59L96.78,23,87.24,2.4,87,1.88c-.44-1-1-1.44-1.64-1.44a7.77,7.77,0,0,0-.85.06c-.34,0-1.13.05-2.38.05A15.15,15.15,0,0,1,80.55.5c-.36,0-.61,0-.75,0-.38,0-.57.16-.57.49s.23.49.68.56a4.84,4.84,0,0,1,3.6,2.42,13,13,0,0,1,1.08,6q0,1.9-.35,9.12l-.32,6.64a9.64,9.64,0,0,1-.8,4,3.39,3.39,0,0,1-2.34,1.56c-.36.07-.55.24-.55.49s.23.49.69.49a4.61,4.61,0,0,0,.71-.07,25.21,25.21,0,0,1,3.2-.2c.92,0,2.24.07,4,.23a7.63,7.63,0,0,0,.84,0c.45,0,.67-.17.67-.51s-.47-.53-1.4-.68q-2.83-.43-2.84-4.46c0-2.8,0-4.66.07-5.59l.53-11.33,8.6,18.57.46,1c.37.7.58,1.12.64,1.26.33.75.68,1.12,1,1.12s.68-.36,1-1.08l.41-.87c.35-.68.77-1.56,1.24-2.63,1.16-2.59,1.81-4,1.93-4.3l2.34-4.8,2-4.37q.65-1.32,2.59-4.73l.6,14.55.09,3.74a6.35,6.35,0,0,1-.46,2.88,2.72,2.72,0,0,1-1.81,1.2q-.57.15-.57.51c0,.27.22.4.67.4.24,0,1.15,0,2.74-.13,1-.06,1.76-.1,2.24-.1a19,19,0,0,1,1.91.09l1.79.19.57,0q.84,0,.84-.45c0-.28-.4-.48-1.21-.6a3.76,3.76,0,0,1-2.34-1,3.93,3.93,0,0,1-.64-2.5l-.11-2.89-.44-12.45-.13-5.53A10.77,10.77,0,0,1,113.13,3a2.23,2.23,0,0,1,1.63-1.44l1-.25a.52.52,0,0,0,.46-.54.39.39,0,0,0-.46-.44Zm56.47.06c-.34,0-.51.15-.51.43s.21.45.62.51A4.74,4.74,0,0,1,176,3.88a13,13,0,0,1,1.26,6.25V25.71a7.21,7.21,0,0,1-.67,3.59,4.68,4.68,0,0,1-2.6,1.77c-.45.15-.66.34-.64.56s.24.43.64.43a6.48,6.48,0,0,0,.84-.09,13.18,13.18,0,0,1,1.7-.1l1.1,0,2.33.11c1.16.06,1.83.11,2,.14a5.76,5.76,0,0,0,.69,0c.32,0,.48-.15.48-.44s-.25-.53-.75-.58a4.87,4.87,0,0,1-2.43-.85,3.34,3.34,0,0,1-.78-2.09l-.07-1.63,0-1V10c0-.69.14-1,.43-1a.41.41,0,0,1,.32.14l.23.25,19.3,22.07.51.6a.77.77,0,0,0,.52.2.57.57,0,0,0,.64-.54,22.48,22.48,0,0,0,.12-3.14V9.39l0-1.51V5.4a6.85,6.85,0,0,1,.45-3,2.73,2.73,0,0,1,1.84-1.14c.33-.09.48-.24.46-.44s-.24-.48-.64-.48a6.82,6.82,0,0,0-1.12.14,15,15,0,0,1-2.27.14c-1.77,0-3.18-.06-4.23-.17q-.67-.06-1-.06c-.45,0-.67.14-.67.42s.22.49.67.57A6.49,6.49,0,0,1,198,2.58a4.27,4.27,0,0,1,1.13,2.76l.28,5.26,0,3.09V25c0,.27-.1.42-.25.43s-.3-.17-.64-.55L177.41,1.05a1.57,1.57,0,0,0-1.14-.66l-.85,0-.36,0-1.54,0-.94,0-.36,0ZM31.77.44Q31,.44,31,1c0,.22.19.37.55.45l1,.2q2.48.51,2.48,3.56v20.5l0,1.05a6.61,6.61,0,0,1-.54,3.13,3.49,3.49,0,0,1-2.13,1.41c-.42.13-.62.3-.62.54s.19.42.57.4.75-.06,1.28-.13a32.9,32.9,0,0,1,4.73-.28c1.62,0,3.15.06,4.6.16l2.48.18c.64.05,1.2.07,1.69.07q4.43,0,6.4-2.48A6.24,6.24,0,0,0,55,26.4c0-.31-.1-.46-.35-.46s-.42.21-.64.62c-.58,1.12-1.92,2-4,2.69a24.24,24.24,0,0,1-7.44,1c-1.94,0-3.09-.17-3.44-.5s-.53-1.43-.53-3.26l0-.8V5.78c0-2.4.68-3.77,2.06-4.11l.8-.18c.44-.11.66-.32.66-.65S41.87.5,41.5.5l-1,.05c-1.14.08-2.41.11-3.81.11s-2.47,0-3.5-.13a13.16,13.16,0,0,0-1.44-.1Zm124.3,1.05a13.41,13.41,0,0,1,10.34,4.56,16.33,16.33,0,0,1,4.15,11.4,14.2,14.2,0,0,1-3.47,9.82,11.24,11.24,0,0,1-8.77,3.87,12.36,12.36,0,0,1-9.82-4.75,17.53,17.53,0,0,1-4-11.69q0-6.06,3.13-9.63a10.62,10.62,0,0,1,8.44-3.58Z"/><path class="cls-1" d="M.26,50.88h201M.26,35.54h201"/><path class="cls-1" d="M135.4,38.69a2.52,2.52,0,0,0-2.8,2.42c0,2.66,4.47,2.33,4.47,4,0,.84-.64,1.15-1.47,1.15a2,2,0,0,1-1.88-1.35l-1.37.6a3.44,3.44,0,0,0,3.24,2.05c1.92,0,3-.89,3-2.67,0-2.8-4.47-2.49-4.47-4,0-.67.52-1,1.24-1A1.6,1.6,0,0,1,137,41.11l1.51-.47a3.15,3.15,0,0,0-3.06-2Zm38,.1v1.4h2.26v7.28h1.66V40.19h2.27v-1.4ZM0,38.81v5.42a3,3,0,0,0,3.32,3.36,3,3,0,0,0,3.33-3.36V38.81H5V44.3c0,1.41-.55,1.9-1.67,1.9s-1.66-.49-1.66-1.9V38.81Zm23.56,0v8.66h1.56V41.3h0l3.54,6.17h1.6V38.81H28.72v5.9h0l-3.41-5.9Zm23.79,0v8.66H49V38.81Zm17.88,0,2.3,8.66h1.84l2.3-8.66H70l-1.6,6.38h0l-1.53-6.38Zm22.5,0v8.66h5.86V46.08H89.38V43.65h3V42.26h-3V40.2h4.08V38.81Zm22.19,0v8.66h1.66V43.94H113l1.64,3.53h1.83l-1.91-3.87a2.14,2.14,0,0,0,1.59-2.23,2.44,2.44,0,0,0-2.77-2.56Zm45.43,0v8.66H157V38.81Zm39.49,0,2.39,5.2v3.46h1.65V44l2.39-5.2h-1.73l-1.48,3.43-1.49-3.43Zm-83.27,1.34h1.52c.91,0,1.4.41,1.4,1.22s-.4,1.23-1.69,1.23h-1.23V40.15Z"/></g></g></svg>